<svg width="276" height="276" viewBox="0 0 276 276" fill="none" xmlns="http://www.w3.org/2000/svg">
<path d="M276 129.003L276 1.20644e-05L145 6.33815e-06L145 78.9999C145 81.9997 143 86.9999 137.5 86.9999C132 86.9999 130 81.9997 130 78.9999L130 5.68248e-06L0.000295398 1.20644e-05L-5.61704e-06 128.503L78.9998 128.503C81.9997 128.503 86.9998 130.503 86.9998 136.003C86.9998 141.503 81.9997 143.503 78.9998 143.503L-6.27271e-06 143.503L0.000298593 276L131 276L131 197C131 194 133 189 138.5 189C144 189 146 194 146 197L146 276L276 276L276 144.003L197 144.003C194.001 144.003 189 142.003 189 136.503C189 131.003 194.001 129.003 197 129.003L276 129.003Z" fill="#FF8D11"/>
</svg>
